<svg xmlns="http://www.w3.org/2000/svg" xml:space="preserve" width="230" height="230" viewBox="0 0 60.854 60.854">
  <g transform="translate(856.672 -326.517)">
    <circle cx="-826.245" cy="356.944" r="30.427" style="fill:#0055d4;stroke:#000;stroke-width:0;stroke-linecap:butt;stroke-linejoin:round"/>
    <path d="M-609.519 224.458a.656.656 0 0 0-.515.764c.06.303.143.665.156.866.03.45-.16 1.096-.428 1.514-.507.792-1.436 1.168-2.336 2.086-.537.548-.732 1.391-.35 2.122.345.656.91 1.08 1.414 1.451.505.371.976.71 1.233 1.036.464.59.616 1.622.458 2.444a.655.655 0 0 0 .517.762.656.656 0 0 0 .763-.516c.217-1.134.077-2.49-.715-3.496-.436-.555-1.006-.927-1.484-1.279-.477-.35-.864-.689-1.031-1.007-.073-.14-.082-.222-.066-.301.016-.08.068-.178.192-.305.663-.677 1.745-1.113 2.502-2.294.416-.648.687-1.48.632-2.304-.027-.397-.13-.79-.178-1.029a.656.656 0 0 0-.764-.514z" style="fill:#cf0;fill-opacity:1;stroke:none;stroke-width:0;stroke-linecap:round;stroke-dasharray:none" transform="translate(854.566 -276.002) scale(2.74025)"/>
    <path d="M-618.159 237.515a.702.702 0 0 0 0 1.403h9.561a.703.703 0 0 0 0-1.403z" style="fill:#cf0;fill-opacity:1;stroke:none;stroke-width:0;stroke-dasharray:none" transform="translate(854.566 -276.002) scale(2.74025)"/>
    <path d="M-617.275 224.458a.656.656 0 0 0-.764.514c-.047.24-.151.632-.178 1.029-.055.825.216 1.656.632 2.304.757 1.181 1.839 1.617 2.502 2.294.125.127.177.226.192.305.016.08.007.162-.066.3-.167.32-.553.657-1.03 1.008-.479.352-1.049.724-1.485 1.28-.792 1.006-.932 2.361-.714 3.495.067.35.413.584.763.516a.656.656 0 0 0 .516-.762c-.158-.822-.006-1.854.459-2.444.256-.326.728-.665 1.232-1.036.504-.37 1.069-.795 1.413-1.451.383-.73.189-1.574-.349-2.122-.9-.918-1.828-1.294-2.336-2.086-.268-.418-.459-1.064-.428-1.514.013-.201.097-.563.156-.866a.657.657 0 0 0-.515-.764z" style="fill:#cf0;fill-opacity:1;stroke:none;stroke-width:0;stroke-linecap:round;stroke-dasharray:none" transform="translate(854.566 -276.002) scale(2.74025)"/>
    <path d="M-618.159 223.043a.703.703 0 0 0 0 1.403h9.561a.702.702 0 0 0 0-1.403z" style="fill:#cf0;fill-opacity:1;stroke:none;stroke-width:0;stroke-dasharray:none" transform="translate(854.566 -276.002) scale(2.74025)"/>
    <path d="M-923.237 142.758c.245.619.144 1.473-.049 1.82h-6.048c-.2-.372-.243-1.375-.049-1.82 1.644-.47 2.023-1.082 2.92-1.374.087-.167.041-2.936.054-3.11a1.432 1.432 0 0 0-.421-1.103c-.778-.794-1.65-1.14-2.17-1.95-.279-.435-.468-1.055-.435-1.55 2.12 1.491 4.204 1.491 6.25 0 .034.495-.156 1.115-.434 1.55-.52.81-1.392 1.156-2.17 1.95a1.432 1.432 0 0 0-.422 1.103c.014.174-.033 2.943.055 3.11.001.022.861.301 1.309.616.947.667 1.61.758 1.61.758z" style="fill:#cf0;fill-opacity:1;stroke:none;stroke-width:.183197;stroke-linecap:round;stroke-linejoin:round" transform="translate(1796.293 -35.608) scale(2.83122)"/>
  </g>
</svg>
